<mxfile host="app.diagrams.net" modified="2021-06-17T17:11:08.125Z" agent="5.0 (X11; Linux x86_64) AppleWebKit/537.36 (KHTML, like Gecko) Chrome/91.0.4472.101 Safari/537.36" etag="Qg9Tll_T6bnQrfMRUqVa" version="14.7.10" type="github" pages="5">
  <diagram name="priorities" id="ocLQ9Hp7BrevotKFya-o">
    <mxGraphModel dx="2062" dy="3327" grid="1" gridSize="10" guides="1" tooltips="1" connect="1" arrows="1" fold="1" page="1" pageScale="1" pageWidth="850" pageHeight="1100" math="1" shadow="0">
      <root>
        <mxCell id="57qgM815ThlHjyKYWkMG-0" />
        <mxCell id="57qgM815ThlHjyKYWkMG-1" parent="57qgM815ThlHjyKYWkMG-0" />
        <mxCell id="2kEnJolNaU2kpaoa1i2H-9" value="software development" style="rounded=1;whiteSpace=wrap;html=1;fontStyle=1;arcSize=0;align=center;verticalAlign=top;spacingLeft=9;spacingTop=5;fontSize=22;fontColor=#333333;strokeColor=none;fillColor=#9AC7BF;autosize=1;container=1;dropTarget=1;recursiveResize=0;labelPadding=4;rotatable=0;imageAspect=0;resizable=1;expand=0;" parent="57qgM815ThlHjyKYWkMG-1" vertex="1">
          <mxGeometry x="380" y="-1997.18" width="1120" height="937.18" as="geometry">
            <mxRectangle x="640" y="-1500" width="270" height="40" as="alternateBounds" />
          </mxGeometry>
        </mxCell>
        <mxCell id="OO1vgt2OXobY8QwEJ4ga-16" value="react dev" style="rounded=1;whiteSpace=wrap;html=1;fontStyle=1;arcSize=0;align=center;verticalAlign=top;spacingLeft=9;spacingTop=5;fontSize=22;fontColor=#333333;strokeColor=none;fillColor=#ADE0D8;autosize=0;container=1;dropTarget=1;recursiveResize=0;treeFolding=1;" parent="2kEnJolNaU2kpaoa1i2H-9" vertex="1">
          <mxGeometry x="280" y="127.18" width="510" height="240" as="geometry">
            <mxRectangle x="40" y="350" width="920" height="440" as="alternateBounds" />
          </mxGeometry>
        </mxCell>
        <mxCell id="u_LP1OdYEh6vxhHFGJdT-2" value="drill bit storage" style="rounded=1;whiteSpace=wrap;html=1;fontStyle=1;arcSize=5;align=left;verticalAlign=top;spacingLeft=9;spacingTop=5;fontSize=18;fontColor=#333333;strokeColor=none;fillColor=#EDE493;" parent="2kEnJolNaU2kpaoa1i2H-9" vertex="1">
          <mxGeometry x="280" y="507.18000000000006" width="370" height="80" as="geometry" />
        </mxCell>
        <mxCell id="u_LP1OdYEh6vxhHFGJdT-0" value="electronics-workbench" style="rounded=1;whiteSpace=wrap;html=1;fontStyle=1;arcSize=5;align=left;verticalAlign=top;spacingLeft=9;spacingTop=5;fontSize=18;fontColor=#333333;strokeColor=none;fillColor=#EDE493;" parent="2kEnJolNaU2kpaoa1i2H-9" vertex="1">
          <mxGeometry x="280" y="397.18000000000006" width="360" height="90" as="geometry" />
        </mxCell>
        <mxCell id="u_LP1OdYEh6vxhHFGJdT-1" value="router table" style="rounded=1;whiteSpace=wrap;html=1;fontStyle=1;arcSize=5;align=left;verticalAlign=top;spacingLeft=9;spacingTop=5;fontSize=18;fontColor=#333333;strokeColor=none;fillColor=#EDE493;" parent="2kEnJolNaU2kpaoa1i2H-9" vertex="1">
          <mxGeometry x="280" y="610" width="370" height="127.18" as="geometry" />
        </mxCell>
        <mxCell id="2kEnJolNaU2kpaoa1i2H-2" value="professional development" style="rounded=1;whiteSpace=wrap;html=1;fontStyle=1;arcSize=6;align=center;verticalAlign=top;spacingLeft=9;spacingTop=5;fontSize=22;fontColor=#333333;strokeColor=none;fillColor=#A3A8C7;recursiveResize=0;container=1;dropTarget=1;" parent="57qgM815ThlHjyKYWkMG-1" vertex="1">
          <mxGeometry x="1620" y="-2130" width="995" height="900" as="geometry" />
        </mxCell>
        <mxCell id="57qgM815ThlHjyKYWkMG-7" value="get a job&lt;br&gt;" style="rounded=1;whiteSpace=wrap;html=1;fontStyle=1;arcSize=5;align=left;verticalAlign=top;spacingLeft=9;spacingTop=5;fontSize=18;fontColor=#333333;strokeColor=none;fillColor=#CCCCCC;" parent="2kEnJolNaU2kpaoa1i2H-2" vertex="1">
          <mxGeometry x="135" y="160" width="180" height="60" as="geometry" />
        </mxCell>
        <mxCell id="KtV5tRg9A214M1-2R7N5-0" value="Dev env improvements" style="rounded=1;whiteSpace=wrap;html=1;fontStyle=1;arcSize=13;align=left;verticalAlign=middle;spacingLeft=0;spacingTop=0;fontSize=18;fontColor=#333333;strokeColor=none;fillColor=#FF66FF;spacingBottom=0;spacing=20;" parent="57qgM815ThlHjyKYWkMG-1" vertex="1">
          <mxGeometry x="690" y="-430" width="210" height="180" as="geometry" />
        </mxCell>
        <mxCell id="KtV5tRg9A214M1-2R7N5-2" style="edgeStyle=none;rounded=0;orthogonalLoop=1;jettySize=auto;html=1;curved=1;" parent="57qgM815ThlHjyKYWkMG-1" edge="1">
          <mxGeometry relative="1" as="geometry">
            <mxPoint x="-50" y="1543.9226519337017" as="targetPoint" />
          </mxGeometry>
        </mxCell>
        <mxCell id="KtV5tRg9A214M1-2R7N5-5" value="career" style="rounded=1;whiteSpace=wrap;html=1;fontStyle=1;arcSize=13;align=center;verticalAlign=middle;spacingLeft=0;spacingTop=0;fontSize=18;fontColor=#333333;strokeColor=none;fillColor=#66FF66;spacingBottom=0;spacing=0;" parent="57qgM815ThlHjyKYWkMG-1" vertex="1">
          <mxGeometry x="520" y="-430" width="150" height="140" as="geometry" />
        </mxCell>
        <mxCell id="KtV5tRg9A214M1-2R7N5-7" value="" style="shape=image;verticalLabelPosition=bottom;labelBackgroundColor=#ffffff;verticalAlign=top;aspect=fixed;imageAspect=0;image=data:image/svg+xml,PHN2ZyB4bWxuczpkYz0iaHR0cDovL3B1cmwub3JnL2RjL2VsZW1lbnRzLzEuMS8iIHhtbG5zOmNjPSJodHRwOi8vY3JlYXRpdmVjb21tb25zLm9yZy9ucyMiIHhtbG5zOnJkZj0iaHR0cDovL3d3dy53My5vcmcvMTk5OS8wMi8yMi1yZGYtc3ludGF4LW5zIyIgeG1sbnM6c3ZnPSJodHRwOi8vd3d3LnczLm9yZy8yMDAwL3N2ZyIgeG1sbnM9Imh0dHA6Ly93d3cudzMub3JnLzIwMDAvc3ZnIiB4bWxuczpzb2RpcG9kaT0iaHR0cDovL3NvZGlwb2RpLnNvdXJjZWZvcmdlLm5ldC9EVEQvc29kaXBvZGktMC5kdGQiIHhtbG5zOmlua3NjYXBlPSJodHRwOi8vd3d3Lmlua3NjYXBlLm9yZy9uYW1lc3BhY2VzL2lua3NjYXBlIiBzb2RpcG9kaTpkb2NuYW1lPSJ0ZW1wbGF0ZS1mb3ItZGVzaWduaW5nLWEuc3ZnIiBpbmtzY2FwZTp2ZXJzaW9uPSIxLjAgKDQwMzVhNGYsIDIwMjAtMDUtMDEpIiBpZD0ic3ZnOCIgdmVyc2lvbj0iMS4xIiB2aWV3Qm94PSIwIDAgMjc5LjQgMjE1LjkiIGhlaWdodD0iOC41aW4iIHdpZHRoPSIxMWluIj4mI3hhOyAgPGRlZnMgaWQ9ImRlZnMyIi8+JiN4YTsgIDxzb2RpcG9kaTpuYW1lZHZpZXcgaW5rc2NhcGU6d2luZG93LW1heGltaXplZD0iMSIgaW5rc2NhcGU6d2luZG93LXk9IjAiIGlua3NjYXBlOndpbmRvdy14PSIwIiBpbmtzY2FwZTp3aW5kb3ctaGVpZ2h0PSI4MzUiIGlua3NjYXBlOndpbmRvdy13aWR0aD0iMTYwMCIgaW5rc2NhcGU6cGFnZWNoZWNrZXJib2FyZD0iZmFsc2UiIHVuaXRzPSJpbiIgc2hvd2dyaWQ9InRydWUiIGlua3NjYXBlOmRvY3VtZW50LXJvdGF0aW9uPSIwIiBpbmtzY2FwZTpjdXJyZW50LWxheWVyPSJsYXllcjEiIGlua3NjYXBlOmRvY3VtZW50LXVuaXRzPSJpbiIgaW5rc2NhcGU6Y3k9IjM1OS43NTQ5MiIgaW5rc2NhcGU6Y3g9IjMyOC40NzQyNSIgaW5rc2NhcGU6em9vbT0iMS40IiBpbmtzY2FwZTpwYWdlc2hhZG93PSIyIiBpbmtzY2FwZTpwYWdlb3BhY2l0eT0iMCIgYm9yZGVyb3BhY2l0eT0iMS4wIiBib3JkZXJjb2xvcj0iIzY2NjY2NiIgcGFnZWNvbG9yPSIjZDhkOGQ4IiBpZD0iYmFzZSI+JiN4YTsgICAgPGlua3NjYXBlOmdyaWQgb3JpZ2lueT0iMCIgb3JpZ2lueD0iMCIgZW1wc3BhY2luZz0iOCIgc3BhY2luZ3k9IjMuMTc1IiBzcGFjaW5neD0iMy4xNzUiIHVuaXRzPSJpbiIgaWQ9ImdyaWQxMCIgdHlwZT0ieHlncmlkIi8+JiN4YTsgIDwvc29kaXBvZGk6bmFtZWR2aWV3PiYjeGE7ICA8bWV0YWRhdGEgaWQ9Im1ldGFkYXRhNSI+JiN4YTsgICAgPHJkZjpSREY+JiN4YTsgICAgICA8Y2M6V29yayByZGY6YWJvdXQ9IiI+JiN4YTsgICAgICAgIDxkYzpmb3JtYXQ+aW1hZ2Uvc3ZnK3htbDwvZGM6Zm9ybWF0PiYjeGE7ICAgICAgICA8ZGM6dHlwZSByZGY6cmVzb3VyY2U9Imh0dHA6Ly9wdXJsLm9yZy9kYy9kY21pdHlwZS9TdGlsbEltYWdlIi8+JiN4YTsgICAgICAgIDxkYzp0aXRsZS8+JiN4YTsgICAgICA8L2NjOldvcms+JiN4YTsgICAgPC9yZGY6UkRGPiYjeGE7ICA8L21ldGFkYXRhPiYjeGE7ICA8ZyBpZD0ibGF5ZXIxIiBpbmtzY2FwZTpncm91cG1vZGU9ImxheWVyIiBpbmtzY2FwZTpsYWJlbD0iTGF5ZXIgMSI+JiN4YTsgICAgPHBhdGggZD0ibSA1MC44LDc2LjIgdiAyNS40IEggNzYuMiBWIDg4LjkgaCAyNS40IFYgNzYuMiBIIDc2LjIgWiIgc3R5bGU9ImZpbGw6IzAwMDBmZjtmaWxsLXJ1bGU6ZXZlbm9kZDtzdHJva2Utd2lkdGg6MC4yNjQ1ODMiIGlkPSJyZWN0MzAiLz4mI3hhOyAgICA8cGF0aCBpZD0icmVjdDMwLTMiIHN0eWxlPSJmaWxsOiMwMDAwZmY7ZmlsbC1ydWxlOmV2ZW5vZGQ7c3Ryb2tlLXdpZHRoOjAuMjY0NTgzIiBkPSJNIDg1LjcyNSwxMDEuNiBWIDEyNyBoIDI1LjQgdiAtMTIuNyBoIDI1LjQgdiAtMTIuNyBoIC0yNS40IHoiLz4mI3hhOyAgPC9nPiYjeGE7PC9zdmc+;" parent="57qgM815ThlHjyKYWkMG-1" vertex="1">
          <mxGeometry x="1572" y="40" width="11" height="9" as="geometry" />
        </mxCell>
        <mxCell id="kLpp1U-n83cEwA2YvQ5j-6" value="" style="group;movable=0;resizable=0;rotatable=0;deletable=0;editable=0;connectable=0;rotation=90;" parent="57qgM815ThlHjyKYWkMG-1" vertex="1" connectable="0">
          <mxGeometry x="985" y="2935" width="2555.4300000000003" height="3820" as="geometry" />
        </mxCell>
        <mxCell id="KtV5tRg9A214M1-2R7N5-9" value="set up osc based music interfaces communicating over network" style="rounded=1;whiteSpace=wrap;html=1;fontStyle=1;arcSize=8;align=left;verticalAlign=middle;spacingLeft=9;spacingTop=-1;fontSize=18;fontColor=#333333;strokeColor=none;fillColor=#CCCCFF;spacingBottom=35;spacing=19;" parent="57qgM815ThlHjyKYWkMG-1" vertex="1">
          <mxGeometry x="520" y="-680" width="290" height="240" as="geometry" />
        </mxCell>
        <mxCell id="KtV5tRg9A214M1-2R7N5-11" value="learn about osc protocol better" style="rounded=1;whiteSpace=wrap;html=1;fontStyle=1;arcSize=13;align=left;verticalAlign=top;spacingLeft=16;spacingTop=16;fontSize=23;fontColor=#333333;strokeColor=none;fillColor=#CCCCFF;spacingBottom=35;spacing=16;" parent="57qgM815ThlHjyKYWkMG-1" vertex="1">
          <mxGeometry x="1750" y="-1060" width="690" height="440" as="geometry" />
        </mxCell>
        <mxCell id="KtV5tRg9A214M1-2R7N5-12" value="make multi-looper" style="rounded=1;whiteSpace=wrap;html=1;fontStyle=1;arcSize=11;align=left;verticalAlign=middle;spacingLeft=9;spacingTop=-1;fontSize=18;fontColor=#333333;strokeColor=none;fillColor=#7EA6E0;spacingBottom=35;spacing=19;" parent="57qgM815ThlHjyKYWkMG-1" vertex="1">
          <mxGeometry x="1160" y="-690" width="250" height="130" as="geometry" />
        </mxCell>
        <mxCell id="stXwXcwxnSmesu_prWRA-2" value="reminder" style="rounded=1;whiteSpace=wrap;html=1;fontStyle=1;arcSize=5;align=left;verticalAlign=middle;spacingLeft=21;spacingTop=5;fontSize=18;fillColor=#f8cecc;strokeColor=none;noLabel=0;labelPadding=6;metaEdit=0;spacingRight=4;" parent="57qgM815ThlHjyKYWkMG-1" vertex="1">
          <mxGeometry x="1020" y="-680" width="130" height="80" as="geometry" />
        </mxCell>
        <mxCell id="UVlK4ExUNmHx3BTyjVDG-0" value="promptr" style="rounded=1;whiteSpace=wrap;html=1;fontStyle=1;arcSize=5;align=left;verticalAlign=top;spacingLeft=9;spacingTop=5;fontSize=18;fontColor=#333333;strokeColor=none;fillColor=#CCCCCC;" parent="57qgM815ThlHjyKYWkMG-1" vertex="1">
          <mxGeometry x="885" y="-588.5899999999999" width="110" height="57.18" as="geometry" />
        </mxCell>
        <mxCell id="nqCKVwh4ATiO2ffA_xfL-5" value="build something in react&lt;br&gt;" style="rounded=1;whiteSpace=wrap;html=1;fontStyle=1;arcSize=5;align=left;verticalAlign=top;spacingLeft=9;spacingTop=5;fontSize=18;fontColor=#ffffff;strokeColor=#314354;fillColor=#647687;" parent="57qgM815ThlHjyKYWkMG-1" vertex="1">
          <mxGeometry x="1210.0042857142857" y="-859.9975" width="200" height="82.8125" as="geometry" />
        </mxCell>
        <mxCell id="icniLl9MklpV4Yl5aLWH-0" value="set up site search on technicalmess.com" style="rounded=1;whiteSpace=wrap;html=1;fontStyle=1;arcSize=8;align=left;verticalAlign=middle;spacingLeft=9;spacingTop=-1;fontSize=18;fontColor=#333333;strokeColor=none;fillColor=#CCCCFF;spacing=19;spacingBottom=35;" parent="57qgM815ThlHjyKYWkMG-1" vertex="1">
          <mxGeometry x="1160" y="-550" width="250" height="100" as="geometry" />
        </mxCell>
        <mxCell id="qooR2vWQp-0721cuaiac-0" value="site map" style="rounded=1;whiteSpace=wrap;html=1;strokeColor=none;fontColor=#333333;fontStyle=1;spacing=9;align=left;verticalAlign=top;arcSize=5;fillColor=#7EE7F7;" parent="57qgM815ThlHjyKYWkMG-1" vertex="1">
          <mxGeometry x="520" y="-240" width="200" height="110" as="geometry" />
        </mxCell>
        <mxCell id="qooR2vWQp-0721cuaiac-3" value="Shop Projects" style="rounded=1;whiteSpace=wrap;html=1;fontStyle=1;arcSize=0;align=center;verticalAlign=top;spacingLeft=9;spacingTop=5;fontSize=22;fontColor=#333333;strokeColor=none;fillColor=#9AC7BF;autosize=1;container=1;dropTarget=1;recursiveResize=0;labelPadding=4;rotatable=0;imageAspect=0;resizable=1;expand=0;" parent="57qgM815ThlHjyKYWkMG-1" vertex="1">
          <mxGeometry x="1700" y="-320" width="785" height="540" as="geometry">
            <mxRectangle x="640" y="-1500" width="270" height="40" as="alternateBounds" />
          </mxGeometry>
        </mxCell>
        <mxCell id="qooR2vWQp-0721cuaiac-4" value="react dev" style="rounded=1;whiteSpace=wrap;html=1;fontStyle=1;arcSize=0;align=center;verticalAlign=top;spacingLeft=9;spacingTop=5;fontSize=22;fontColor=#333333;strokeColor=none;fillColor=#ADE0D8;autosize=0;container=1;dropTarget=1;recursiveResize=0;treeFolding=1;" parent="qooR2vWQp-0721cuaiac-3" vertex="1">
          <mxGeometry x="70" y="80" width="510" height="240" as="geometry">
            <mxRectangle x="40" y="350" width="920" height="440" as="alternateBounds" />
          </mxGeometry>
        </mxCell>
        <mxCell id="qooR2vWQp-0721cuaiac-8" value="learn about osc protocol better" style="rounded=1;whiteSpace=wrap;html=1;fontStyle=1;arcSize=8;align=left;verticalAlign=top;spacingLeft=16;spacingTop=16;fontSize=23;fontColor=#333333;strokeColor=none;fillColor=#CCCCFF;spacingBottom=35;spacing=16;dropTarget=1;collapsible=1;container=1;" parent="57qgM815ThlHjyKYWkMG-1" vertex="1">
          <mxGeometry x="2615" y="-680" width="690" height="440" as="geometry" />
        </mxCell>
        <mxCell id="stXwXcwxnSmesu_prWRA-1" value="communicate with team is an important part of completion" style="rounded=1;whiteSpace=wrap;html=1;fontStyle=1;arcSize=8;align=left;verticalAlign=middle;spacingLeft=21;spacingTop=5;fontSize=18;fillColor=#f8cecc;strokeColor=none;noLabel=0;labelPadding=6;metaEdit=0;spacingRight=4;" parent="qooR2vWQp-0721cuaiac-8" vertex="1">
          <mxGeometry x="170" y="200" width="240" height="120" as="geometry" />
        </mxCell>
        <mxCell id="qooR2vWQp-0721cuaiac-9" value="Drop Container" style="rounded=1;whiteSpace=wrap;html=1;strokeColor=none;fontColor=#333333;fontStyle=1;spacing=20;arcSize=13;align=left;verticalAlign=top;collapsible=1;dropTarget=1;container=1;autosize=0;recursiveResize=0;labelBackgroundColor=none;fontSize=18;spacingTop=0;spacingLeft=0;spacingBottom=0;fillColor=#FF8CCD;" parent="57qgM815ThlHjyKYWkMG-1" vertex="1">
          <mxGeometry x="1175" y="-400" width="270" height="310" as="geometry">
            <mxRectangle x="-110" y="430" width="90" height="40" as="alternateBounds" />
          </mxGeometry>
        </mxCell>
      </root>
    </mxGraphModel>
  </diagram>
  <diagram id="BRHKby4rjB6cL3TT8mnI" name="Page-1">
    <mxGraphModel dx="1426" dy="844" grid="1" gridSize="10" guides="1" tooltips="1" connect="1" arrows="1" fold="1" page="1" pageScale="1" pageWidth="850" pageHeight="1100" background="#E6E6E6" math="0" shadow="0">
      <root>
        <mxCell id="0" />
        <mxCell id="1" parent="0" />
        <mxCell id="doYnzvVh7wMHrFUigWJ6-1" style="edgeStyle=orthogonalEdgeStyle;rounded=0;orthogonalLoop=1;jettySize=auto;html=1;exitX=0.5;exitY=1;exitDx=0;exitDy=0;entryX=1;entryY=0.75;entryDx=0;entryDy=0;dashed=1;strokeWidth=6;strokeColor=#A1A1A1;" parent="1" source="M8dn4KWpEM2UIbXze0XL-2" target="M8dn4KWpEM2UIbXze0XL-3" edge="1">
          <mxGeometry relative="1" as="geometry" />
        </mxCell>
        <mxCell id="M8dn4KWpEM2UIbXze0XL-2" value="terminal" style="rounded=0;html=1;verticalAlign=top;align=left;spacingTop=2;spacingLeft=11;fontStyle=1;strokeColor=#BFBFBF;fontColor=#B5B5B5;fillColor=#F0F0F0;" parent="1" vertex="1">
          <mxGeometry x="550" width="210" height="250" as="geometry" />
        </mxCell>
        <mxCell id="M8dn4KWpEM2UIbXze0XL-3" value="mw -- ..." style="rounded=0;html=1;verticalAlign=top;align=left;spacingTop=2;spacingLeft=11;fontStyle=1;strokeColor=#BFBFBF;fontColor=#B5B5B5;fillColor=#F0F0F0;" parent="1" vertex="1">
          <mxGeometry x="90" y="70" width="450" height="420" as="geometry" />
        </mxCell>
        <mxCell id="M8dn4KWpEM2UIbXze0XL-4" value="corpus/mw-commands.md" style="rounded=1;html=1;align=left;fontStyle=1;glass=0;verticalAlign=top;labelPosition=center;verticalLabelPosition=middle;spacingLeft=7;arcSize=0;strokeColor=#BFBFBF;fontColor=#B5B5B5;fillColor=#F0F0F0;" parent="1" vertex="1">
          <mxGeometry x="330" width="210" height="60" as="geometry" />
        </mxCell>
        <mxCell id="M8dn4KWpEM2UIbXze0XL-5" value="mw" style="rounded=0;html=1;verticalAlign=top;align=left;spacingTop=2;spacingLeft=11;fontStyle=1;strokeColor=#BFBFBF;fontColor=#B5B5B5;fillColor=#F0F0F0;" parent="1" vertex="1">
          <mxGeometry x="90" width="60" height="60" as="geometry" />
        </mxCell>
        <mxCell id="M8dn4KWpEM2UIbXze0XL-6" value="command" style="rounded=0;html=1;verticalAlign=top;align=left;spacingTop=2;spacingLeft=11;fontStyle=1;strokeColor=#BFBFBF;fontColor=#B5B5B5;fillColor=#F0F0F0;" parent="1" vertex="1">
          <mxGeometry x="160" width="160" height="60" as="geometry" />
        </mxCell>
      </root>
    </mxGraphModel>
  </diagram>
  <diagram name="Tracking my theme inheritance" id="qegTBdjG4L62mmGAeBqi">
    <mxGraphModel dx="1727" dy="924" grid="1" gridSize="10" guides="1" tooltips="1" connect="1" arrows="1" fold="1" page="1" pageScale="1" pageWidth="850" pageHeight="1100" math="0" shadow="0">
      <root>
        <mxCell id="09sq7gRQMhWIal_bmaek-0" />
        <mxCell id="09sq7gRQMhWIal_bmaek-1" parent="09sq7gRQMhWIal_bmaek-0" />
        <mxCell id="CH0xojQbbbADZ-7QYrCj-3" value="index.html" style="rounded=1;whiteSpace=wrap;html=1;fillColor=#CFCFCF;strokeColor=none;fontColor=#333333;fontStyle=1;spacing=9;arcSize=6;align=left;verticalAlign=top;collapsible=1;dropTarget=1;container=1;autosize=0;recursiveResize=0;" parent="09sq7gRQMhWIal_bmaek-1" vertex="1">
          <mxGeometry x="670" y="180" width="340" height="410" as="geometry">
            <mxRectangle x="-110" y="430" width="90" height="40" as="alternateBounds" />
          </mxGeometry>
        </mxCell>
        <mxCell id="CH0xojQbbbADZ-7QYrCj-5" value="first land" style="rounded=1;whiteSpace=wrap;html=1;strokeColor=#6c8ebf;fontStyle=1;spacing=9;align=left;verticalAlign=top;arcSize=5;fillColor=#dae8fc;" parent="CH0xojQbbbADZ-7QYrCj-3" vertex="1">
          <mxGeometry x="40" y="49.996510590858435" width="150" height="52.769230769230774" as="geometry" />
        </mxCell>
        <mxCell id="CH0xojQbbbADZ-7QYrCj-14" style="edgeStyle=orthogonalEdgeStyle;rounded=0;orthogonalLoop=1;jettySize=auto;html=1;" parent="09sq7gRQMhWIal_bmaek-1" source="CH0xojQbbbADZ-7QYrCj-10" target="CH0xojQbbbADZ-7QYrCj-3" edge="1">
          <mxGeometry relative="1" as="geometry" />
        </mxCell>
        <mxCell id="CH0xojQbbbADZ-7QYrCj-10" value="baseof.html" style="rounded=1;whiteSpace=wrap;html=1;fillColor=#CFCFCF;strokeColor=none;fontColor=#333333;fontStyle=1;spacing=9;arcSize=6;align=left;verticalAlign=top;collapsible=1;dropTarget=1;container=1;autosize=0;recursiveResize=0;" parent="09sq7gRQMhWIal_bmaek-1" vertex="1">
          <mxGeometry x="120" y="170" width="340" height="350" as="geometry">
            <mxRectangle x="-110" y="430" width="90" height="40" as="alternateBounds" />
          </mxGeometry>
        </mxCell>
        <mxCell id="CH0xojQbbbADZ-7QYrCj-12" value="root of all other template pages" style="rounded=1;whiteSpace=wrap;html=1;strokeColor=none;fontColor=#333333;fontStyle=1;spacing=9;align=left;verticalAlign=top;arcSize=5;fillColor=#BBDEF2;" parent="CH0xojQbbbADZ-7QYrCj-10" vertex="1">
          <mxGeometry x="100" y="30" width="210" height="90" as="geometry" />
        </mxCell>
        <mxCell id="CH0xojQbbbADZ-7QYrCj-18" value="site map" style="rounded=1;whiteSpace=wrap;html=1;strokeColor=none;fontColor=#333333;fontStyle=1;spacing=9;align=left;verticalAlign=top;arcSize=5;fillColor=#7EE7F7;" parent="09sq7gRQMhWIal_bmaek-1" vertex="1">
          <mxGeometry x="880" y="740" width="190" height="100" as="geometry" />
        </mxCell>
        <mxCell id="CH0xojQbbbADZ-7QYrCj-17" value="all pages" style="rounded=1;whiteSpace=wrap;html=1;strokeColor=none;fontColor=#333333;fontStyle=1;spacing=2;align=left;verticalAlign=top;arcSize=5;fillColor=#7EE7F7;" parent="09sq7gRQMhWIal_bmaek-1" vertex="1">
          <mxGeometry x="1080" y="740" width="160" height="120" as="geometry" />
        </mxCell>
        <mxCell id="CH0xojQbbbADZ-7QYrCj-15" value="wraps a div around&amp;nbsp; partials" style="rounded=1;whiteSpace=wrap;strokeColor=none;fontColor=#333333;fontStyle=1;spacing=7;align=left;verticalAlign=middle;arcSize=5;fillColor=#7EE7F7;html=1;labelBackgroundColor=none;labelPosition=center;verticalLabelPosition=middle;textDirection=ltr;horizontal=1;" parent="09sq7gRQMhWIal_bmaek-1" vertex="1">
          <mxGeometry x="1240" y="600" width="160" height="40" as="geometry" />
        </mxCell>
        <mxCell id="CH0xojQbbbADZ-7QYrCj-16" value="{{ .Content }}" style="rounded=1;whiteSpace=wrap;html=1;strokeColor=none;fontColor=#333333;fontStyle=1;spacing=7;align=left;verticalAlign=middle;arcSize=5;fillColor=#7EE7F7;" parent="09sq7gRQMhWIal_bmaek-1" vertex="1">
          <mxGeometry x="1240" y="400" width="160" height="30" as="geometry" />
        </mxCell>
        <mxCell id="38yGoSPPENM3oCgKCq9m-4" value="sub 3" style="whiteSpace=wrap;html=1;" parent="09sq7gRQMhWIal_bmaek-1" vertex="1">
          <mxGeometry x="630" y="779.9956521739131" width="120" height="42.608695652173914" as="geometry" />
        </mxCell>
        <mxCell id="38yGoSPPENM3oCgKCq9m-2" value="sub 2" style="rounded=1;whiteSpace=wrap;html=1;fillColor=#53AECF;strokeColor=none;fontColor=#333333;fontStyle=1;spacing=9;align=left;verticalAlign=top;arcSize=8;" parent="09sq7gRQMhWIal_bmaek-1" vertex="1">
          <mxGeometry x="680" y="709.9984615384616" width="120" height="45.23076923076924" as="geometry" />
        </mxCell>
        <mxCell id="38yGoSPPENM3oCgKCq9m-3" value="sub 1" style="rounded=1;whiteSpace=wrap;html=1;fillColor=#53AECF;strokeColor=none;fontColor=#333333;fontStyle=1;spacing=9;align=left;verticalAlign=top;arcSize=5;" parent="09sq7gRQMhWIal_bmaek-1" vertex="1">
          <mxGeometry x="680" y="639.9965105908584" width="150" height="52.769230769230774" as="geometry" />
        </mxCell>
        <mxCell id="ZVLLQQhuGxdDIgEJwfOy-0" value="Problems to solve" style="rounded=1;whiteSpace=wrap;html=1;fontStyle=1;arcSize=5;align=left;verticalAlign=top;spacingLeft=8;spacingTop=8;fontSize=20;fontColor=#333333;fillColor=#E6E6E6;spacingBottom=16;spacing=8;container=1;dropTarget=1;recursiveResize=0;strokeColor=none;collapsible=0;" vertex="1" parent="09sq7gRQMhWIal_bmaek-1">
          <mxGeometry x="100" y="670" width="340" height="400" as="geometry" />
        </mxCell>
        <mxCell id="ZVLLQQhuGxdDIgEJwfOy-1" value="some app in process I am working on, or something I want to show specific people." style="rounded=1;whiteSpace=wrap;html=1;fontStyle=1;arcSize=5;align=left;verticalAlign=top;spacingLeft=8;spacingTop=8;fontSize=12;fontColor=#333333;spacingBottom=16;spacing=8;container=1;dropTarget=1;fillColor=#F7F7F7;strokeColor=none;recursiveResize=1;noLabel=0;collapsible=0;" vertex="1" parent="ZVLLQQhuGxdDIgEJwfOy-0">
          <mxGeometry x="78.79999999999995" y="57.44" width="133.18" height="127.09" as="geometry" />
        </mxCell>
      </root>
    </mxGraphModel>
  </diagram>
  <diagram name="user stories for db-compare" id="c0e-OaB_B_oBAkPB1tJl">
    <mxGraphModel dx="2912" dy="1127" grid="1" gridSize="10" guides="1" tooltips="1" connect="1" arrows="1" fold="1" page="1" pageScale="1" pageWidth="850" pageHeight="1100" math="0" shadow="0">
      <root>
        <mxCell id="-lOo1Ao-lf68qYuuejM3-0" />
        <mxCell id="-lOo1Ao-lf68qYuuejM3-1" parent="-lOo1Ao-lf68qYuuejM3-0" />
        <mxCell id="-lOo1Ao-lf68qYuuejM3-7" value="" style="edgeStyle=orthogonalEdgeStyle;rounded=1;orthogonalLoop=1;jettySize=auto;html=1;strokeWidth=22;endArrow=blockThin;endFill=1;fillColor=#e1d5e7;strokeColor=#9673a6;" parent="-lOo1Ao-lf68qYuuejM3-1" source="-lOo1Ao-lf68qYuuejM3-2" target="-lOo1Ao-lf68qYuuejM3-6" edge="1">
          <mxGeometry relative="1" as="geometry">
            <Array as="points">
              <mxPoint x="600" y="80" />
              <mxPoint x="600" y="80" />
            </Array>
          </mxGeometry>
        </mxCell>
        <mxCell id="-lOo1Ao-lf68qYuuejM3-16" style="edgeStyle=orthogonalEdgeStyle;rounded=1;orthogonalLoop=1;jettySize=auto;html=1;exitX=1;exitY=0.5;exitDx=0;exitDy=0;entryX=0;entryY=0.5;entryDx=0;entryDy=0;endArrow=blockThin;endFill=1;strokeWidth=22;fillColor=#e1d5e7;strokeColor=#9673a6;" parent="-lOo1Ao-lf68qYuuejM3-1" source="-lOo1Ao-lf68qYuuejM3-2" target="-lOo1Ao-lf68qYuuejM3-12" edge="1">
          <mxGeometry relative="1" as="geometry" />
        </mxCell>
        <mxCell id="-lOo1Ao-lf68qYuuejM3-2" value="opens browser and goes to page" style="rounded=1;whiteSpace=wrap;html=1;fontStyle=1;arcSize=0;align=left;verticalAlign=top;spacingLeft=9;spacingTop=5;fontSize=22;strokeColor=#9673a6;fillColor=#e1d5e7;autosize=1;container=1;dropTarget=1;recursiveResize=0;labelPadding=4;rotatable=0;imageAspect=0;resizable=1;expand=0;" parent="-lOo1Ao-lf68qYuuejM3-1" vertex="1">
          <mxGeometry x="-20" y="20" width="470" height="245" as="geometry">
            <mxRectangle x="-1140" y="1190" width="140" height="40" as="alternateBounds" />
          </mxGeometry>
        </mxCell>
        <mxCell id="-lOo1Ao-lf68qYuuejM3-17" style="edgeStyle=orthogonalEdgeStyle;rounded=1;orthogonalLoop=1;jettySize=auto;html=1;endArrow=blockThin;endFill=1;strokeWidth=22;strokeColor=#9673a6;fillColor=#e1d5e7;entryX=0;entryY=0.5;entryDx=0;entryDy=0;" parent="-lOo1Ao-lf68qYuuejM3-1" source="-lOo1Ao-lf68qYuuejM3-6" target="-lOo1Ao-lf68qYuuejM3-18" edge="1">
          <mxGeometry relative="1" as="geometry">
            <mxPoint x="1500" y="80" as="targetPoint" />
          </mxGeometry>
        </mxCell>
        <mxCell id="-lOo1Ao-lf68qYuuejM3-6" value="can upload a csv" style="rounded=1;whiteSpace=wrap;html=1;fontStyle=1;arcSize=0;align=left;verticalAlign=top;spacingLeft=9;spacingTop=5;fontSize=22;strokeColor=#9673a6;fillColor=#e1d5e7;autosize=1;container=1;dropTarget=1;recursiveResize=0;labelPadding=4;rotatable=0;imageAspect=0;resizable=1;expand=0;" parent="-lOo1Ao-lf68qYuuejM3-1" vertex="1">
          <mxGeometry x="770" y="20" width="220" height="120" as="geometry">
            <mxRectangle x="770" y="20" width="140" height="40" as="alternateBounds" />
          </mxGeometry>
        </mxCell>
        <mxCell id="-lOo1Ao-lf68qYuuejM3-21" value="" style="edgeStyle=orthogonalEdgeStyle;orthogonalLoop=1;jettySize=auto;html=1;endArrow=blockThin;endFill=1;strokeColor=#9673a6;strokeWidth=22;fillColor=#e1d5e7;" parent="-lOo1Ao-lf68qYuuejM3-1" source="-lOo1Ao-lf68qYuuejM3-12" target="-lOo1Ao-lf68qYuuejM3-20" edge="1">
          <mxGeometry relative="1" as="geometry" />
        </mxCell>
        <mxCell id="-lOo1Ao-lf68qYuuejM3-12" value="can connect to a postgresql database" style="rounded=1;whiteSpace=wrap;html=1;fontStyle=1;arcSize=0;align=left;verticalAlign=top;spacingLeft=9;spacingTop=5;fontSize=22;strokeColor=#9673a6;fillColor=#e1d5e7;autosize=1;container=1;dropTarget=1;recursiveResize=0;labelPadding=4;rotatable=0;imageAspect=0;resizable=1;expand=0;" parent="-lOo1Ao-lf68qYuuejM3-1" vertex="1">
          <mxGeometry x="870" y="430" width="220" height="120" as="geometry">
            <mxRectangle x="-1140" y="1190" width="140" height="40" as="alternateBounds" />
          </mxGeometry>
        </mxCell>
        <mxCell id="-lOo1Ao-lf68qYuuejM3-23" value="" style="edgeStyle=orthogonalEdgeStyle;orthogonalLoop=1;jettySize=auto;html=1;endArrow=blockThin;endFill=1;strokeColor=#9673a6;strokeWidth=22;fillColor=#e1d5e7;" parent="-lOo1Ao-lf68qYuuejM3-1" source="-lOo1Ao-lf68qYuuejM3-18" target="-lOo1Ao-lf68qYuuejM3-22" edge="1">
          <mxGeometry relative="1" as="geometry" />
        </mxCell>
        <mxCell id="-lOo1Ao-lf68qYuuejM3-18" value="can query the csv" style="rounded=1;whiteSpace=wrap;html=1;fontStyle=1;arcSize=0;align=left;verticalAlign=top;spacingLeft=9;spacingTop=5;fontSize=22;strokeColor=#9673a6;fillColor=#e1d5e7;autosize=1;container=1;dropTarget=1;recursiveResize=0;labelPadding=4;rotatable=0;imageAspect=0;resizable=1;expand=0;" parent="-lOo1Ao-lf68qYuuejM3-1" vertex="1">
          <mxGeometry x="1250" y="22.5" width="280" height="120" as="geometry">
            <mxRectangle x="-1140" y="1190" width="140" height="40" as="alternateBounds" />
          </mxGeometry>
        </mxCell>
        <mxCell id="-lOo1Ao-lf68qYuuejM3-24" style="edgeStyle=orthogonalEdgeStyle;orthogonalLoop=1;jettySize=auto;html=1;exitX=1;exitY=0.5;exitDx=0;exitDy=0;entryX=0;entryY=0.5;entryDx=0;entryDy=0;endArrow=blockThin;endFill=1;strokeColor=#9673a6;strokeWidth=22;fillColor=#e1d5e7;" parent="-lOo1Ao-lf68qYuuejM3-1" source="-lOo1Ao-lf68qYuuejM3-20" target="-lOo1Ao-lf68qYuuejM3-22" edge="1">
          <mxGeometry relative="1" as="geometry" />
        </mxCell>
        <mxCell id="-lOo1Ao-lf68qYuuejM3-20" value="can query the postgresql db" style="rounded=1;whiteSpace=wrap;html=1;fontStyle=1;arcSize=0;align=left;verticalAlign=top;spacingLeft=9;spacingTop=5;fontSize=22;strokeColor=#9673a6;fillColor=#e1d5e7;autosize=1;container=1;dropTarget=1;recursiveResize=0;labelPadding=4;rotatable=0;imageAspect=0;resizable=1;expand=0;" parent="-lOo1Ao-lf68qYuuejM3-1" vertex="1">
          <mxGeometry x="1250" y="170" width="280" height="100" as="geometry">
            <mxRectangle x="-1140" y="1190" width="140" height="40" as="alternateBounds" />
          </mxGeometry>
        </mxCell>
        <mxCell id="-lOo1Ao-lf68qYuuejM3-22" value="Can compare the queries" style="rounded=1;whiteSpace=wrap;html=1;fontStyle=1;arcSize=0;align=left;verticalAlign=top;spacingLeft=9;spacingTop=5;fontSize=22;strokeColor=#9673a6;fillColor=#e1d5e7;autosize=1;container=1;dropTarget=1;recursiveResize=0;labelPadding=4;rotatable=0;imageAspect=0;resizable=1;expand=0;" parent="-lOo1Ao-lf68qYuuejM3-1" vertex="1">
          <mxGeometry x="1820" y="37.5" width="470" height="210" as="geometry">
            <mxRectangle x="-1140" y="1190" width="140" height="40" as="alternateBounds" />
          </mxGeometry>
        </mxCell>
      </root>
    </mxGraphModel>
  </diagram>
  <diagram name="dev-and-deploy-diagram" id="vHM7K-DAfjwmjBI460fi">
    <mxGraphModel dx="2912" dy="2227" grid="1" gridSize="10" guides="1" tooltips="1" connect="1" arrows="1" fold="1" page="1" pageScale="1" pageWidth="850" pageHeight="1100" math="0" shadow="0">
      <root>
        <mxCell id="fwjdjQtZlfdFxT0WzEN2-0" />
        <mxCell id="fwjdjQtZlfdFxT0WzEN2-1" parent="fwjdjQtZlfdFxT0WzEN2-0" />
        <mxCell id="-xpC75UbTEIk0M-_b8Mr-0" value="next steps brainstorm" style="swimlane;html=0;startSize=70;childLayout=stackLayout;horizontalStack=0;stackBorder=8;stackSpacing=20;resizeLast=0;resizeParent=1;swimlaneLine=0;swimlaneFillColor=#ffffff;dropTarget=1;collapsible=0;container=1;verticalAlign=middle;fontSize=20;fontStyle=0;labelPosition=center;verticalLabelPosition=middle;align=center;fillColor=#5C5C5C;rounded=1;arcSize=2;fontColor=#E6E6E6;autosize=0;strokeWidth=6;perimeterSpacing=1;horizontal=1;allowArrows=0;strokeColor=none;shadow=1;" vertex="1" parent="fwjdjQtZlfdFxT0WzEN2-1">
          <mxGeometry x="-780" y="20" width="380" height="1206" as="geometry" />
        </mxCell>
        <mxCell id="-xpC75UbTEIk0M-_b8Mr-1" value="deploy to staging site on LAN" style="rounded=1;whiteSpace=wrap;html=1;fontSize=12;startSize=0;align=left;strokeColor=#6c8ebf;shadow=0;fillColor=#dae8fc;arcSize=9;verticalAlign=middle;spacing=12;" vertex="1" parent="-xpC75UbTEIk0M-_b8Mr-0">
          <mxGeometry x="8" y="78" width="364" height="170" as="geometry" />
        </mxCell>
        <mxCell id="-xpC75UbTEIk0M-_b8Mr-2" value="set up design system for blog" style="rounded=1;whiteSpace=wrap;html=1;fontSize=12;align=center;strokeColor=none;fillColor=#BDCADB;" vertex="1" parent="-xpC75UbTEIk0M-_b8Mr-0">
          <mxGeometry x="8" y="268" width="364" height="80" as="geometry" />
        </mxCell>
        <mxCell id="75QgC71HdtRZhX9at3bx-3" value="/heywilding.com" style="rounded=1;whiteSpace=wrap;html=1;fontStyle=1;arcSize=5;align=left;verticalAlign=top;spacingLeft=8;spacingTop=8;fontSize=12;fontColor=#333333;fillColor=#E6E6E6;spacingBottom=16;spacing=8;container=1;dropTarget=1;strokeColor=none;collapsible=0;" parent="fwjdjQtZlfdFxT0WzEN2-1" vertex="1">
          <mxGeometry x="-120" y="120" width="670" height="500" as="geometry" />
        </mxCell>
        <mxCell id="75QgC71HdtRZhX9at3bx-6" value="resume" style="rounded=1;whiteSpace=wrap;html=1;fontStyle=1;arcSize=5;align=left;verticalAlign=top;spacingLeft=8;spacingTop=8;fontSize=12;fontColor=#333333;spacingBottom=16;spacing=8;container=1;dropTarget=1;fillColor=#F7F7F7;strokeColor=none;recursiveResize=1;noLabel=0;collapsible=0;" parent="75QgC71HdtRZhX9at3bx-3" vertex="1">
          <mxGeometry x="131.60714285714286" y="59.634559419874996" width="198.58321428571426" height="59.634559419874996" as="geometry">
            <mxRectangle x="111.33031250000002" y="49.99564102564102" width="170" height="60" as="alternateBounds" />
          </mxGeometry>
        </mxCell>
        <mxCell id="75QgC71HdtRZhX9at3bx-4" value="/corpus" style="rounded=1;whiteSpace=wrap;html=1;fontStyle=1;arcSize=5;align=left;verticalAlign=top;spacingLeft=8;spacingTop=8;fontSize=12;fontColor=#333333;spacingBottom=16;spacing=8;container=1;dropTarget=1;fillColor=#E6E6E6;strokeColor=none;" parent="fwjdjQtZlfdFxT0WzEN2-1" vertex="1">
          <mxGeometry x="490" y="-120.00282051282056" width="270" height="155.89743589743588" as="geometry" />
        </mxCell>
        <mxCell id="75QgC71HdtRZhX9at3bx-5" value="private markdown documents&amp;nbsp;" style="rounded=1;whiteSpace=wrap;html=1;fontStyle=1;arcSize=5;align=left;verticalAlign=top;spacingLeft=8;spacingTop=8;fontSize=12;fontColor=#333333;spacingBottom=16;spacing=8;container=1;dropTarget=1;fillColor=#F7F7F7;strokeColor=none;recursiveResize=1;noLabel=0;" parent="75QgC71HdtRZhX9at3bx-4" vertex="1">
          <mxGeometry x="98.80000000000001" y="50.51" width="154.83" height="70.77" as="geometry" />
        </mxCell>
        <mxCell id="75QgC71HdtRZhX9at3bx-10" value="/db-compare.heywilding.com" style="rounded=1;whiteSpace=wrap;html=1;fontStyle=1;arcSize=5;align=left;verticalAlign=top;spacingLeft=8;spacingTop=8;fontSize=12;fontColor=#333333;fillColor=#E6E6E6;spacingBottom=16;spacing=8;container=1;dropTarget=1;recursiveResize=0;strokeColor=none;" parent="fwjdjQtZlfdFxT0WzEN2-1" vertex="1">
          <mxGeometry x="-10" y="750.0048717948717" width="270" height="131.28205128205127" as="geometry" />
        </mxCell>
        <mxCell id="75QgC71HdtRZhX9at3bx-11" value="my db-compare app demo to show&amp;nbsp;" style="rounded=1;whiteSpace=wrap;html=1;fontStyle=1;arcSize=5;align=left;verticalAlign=top;spacingLeft=8;spacingTop=8;fontSize=12;fontColor=#333333;spacingBottom=16;spacing=8;container=1;dropTarget=1;fillColor=#F7F7F7;strokeColor=none;recursiveResize=1;noLabel=0;" parent="75QgC71HdtRZhX9at3bx-10" vertex="1">
          <mxGeometry x="106.36" y="57.44" width="147.27" height="62.56" as="geometry" />
        </mxCell>
        <mxCell id="75QgC71HdtRZhX9at3bx-7" value="/someexperiment.heywildiing.com" style="rounded=1;whiteSpace=wrap;html=1;fontStyle=1;arcSize=5;align=left;verticalAlign=top;spacingLeft=8;spacingTop=8;fontSize=12;fontColor=#333333;spacingBottom=16;spacing=8;container=1;dropTarget=1;recursiveResize=0;strokeColor=none;collapsible=0;fillColor=#C4C4C4;" parent="fwjdjQtZlfdFxT0WzEN2-1" vertex="1">
          <mxGeometry x="740.0014285714285" y="239.99603072372497" width="358.92857142857144" height="368.803969276275" as="geometry" />
        </mxCell>
        <mxCell id="75QgC71HdtRZhX9at3bx-8" value="some app in process I am working on, or something I want to show specific people." style="rounded=1;whiteSpace=wrap;html=1;fontStyle=1;arcSize=5;align=left;verticalAlign=top;spacingLeft=8;spacingTop=8;fontSize=12;fontColor=#333333;spacingBottom=16;spacing=8;container=1;dropTarget=1;fillColor=#F7F7F7;strokeColor=none;recursiveResize=1;noLabel=0;collapsible=0;" parent="75QgC71HdtRZhX9at3bx-7" vertex="1">
          <mxGeometry x="94.27857142857142" y="68.5081818615524" width="216.79285714285712" height="205.8107914698726" as="geometry" />
        </mxCell>
      </root>
    </mxGraphModel>
  </diagram>
</mxfile>
